<svg xmlns="http://www.w3.org/2000/svg" width="125.935" height="80.825" viewBox="0 0 125.935 80.825">
  <g id="Group_85783" data-name="Group 85783" transform="translate(-16.901 -39.41)">
    <g id="Group_85782" data-name="Group 85782">
      <path id="Path_41416" data-name="Path 41416" d="M104.373,177.789c-15.2,0-30.857-6.515-45.277-18.84A105.461,105.461,0,0,1,41.761,140.2a2.058,2.058,0,0,1,0-2.313A105.461,105.461,0,0,1,59.1,119.129c14.42-12.325,30.077-18.84,45.277-18.84s30.856,6.515,45.277,18.84a105.468,105.468,0,0,1,17.335,18.754,2.058,2.058,0,0,1,0,2.313,105.468,105.468,0,0,1-17.335,18.754c-14.421,12.325-30.077,18.84-45.277,18.84M46,139.039a106.82,106.82,0,0,0,15.854,16.854c9.513,8.112,24.611,17.783,42.522,17.783s33.009-9.671,42.522-17.783a106.822,106.822,0,0,0,15.854-16.854,106.819,106.819,0,0,0-15.854-16.854c-9.513-8.112-24.611-17.783-42.522-17.783s-33.01,9.671-42.522,17.783A106.822,106.822,0,0,0,46,139.039" transform="translate(-24.504 -59.216)" fill="#062846"/>
      <path id="Path_41417" data-name="Path 41417" d="M155.9,182.333a28.214,28.214,0,1,1,28.214-28.214A28.246,28.246,0,0,1,155.9,182.333m0-52.314a24.1,24.1,0,1,0,24.1,24.1,24.128,24.128,0,0,0-24.1-24.1" transform="translate(-75.298 -74.297)" fill="#062846"/>
      <path id="Path_41418" data-name="Path 41418" d="M56.919,109.472a2.056,2.056,0,0,1-2.057-2.057V101.8a5.564,5.564,0,0,1,5.559-5.558h5.612a2.056,2.056,0,1,1,0,4.113H60.421a1.447,1.447,0,0,0-1.446,1.445v5.613a2.056,2.056,0,0,1-2.056,2.057" transform="translate(-32.426 -56.835)" fill="#062846"/>
      <path id="Path_41419" data-name="Path 41419" d="M66.033,273.823H60.42a5.564,5.564,0,0,1-5.558-5.558v-5.612a2.057,2.057,0,1,1,4.113,0v5.612a1.447,1.447,0,0,0,1.445,1.445h5.613a2.056,2.056,0,1,1,0,4.113" transform="translate(-32.426 -153.589)" fill="#062846"/>
      <path id="Path_41420" data-name="Path 41420" d="M309.649,273.823h-5.613a2.056,2.056,0,1,1,0-4.113h5.613a1.447,1.447,0,0,0,1.445-1.445v-5.612a2.056,2.056,0,1,1,4.113,0v5.612a5.565,5.565,0,0,1-5.558,5.558" transform="translate(-177.904 -153.589)" fill="#062846"/>
      <path id="Path_41421" data-name="Path 41421" d="M313.151,109.472a2.056,2.056,0,0,1-2.056-2.057V101.8a1.447,1.447,0,0,0-1.445-1.445h-5.613a2.056,2.056,0,0,1,0-4.113h5.613a5.564,5.564,0,0,1,5.558,5.558v5.613a2.056,2.056,0,0,1-2.056,2.057" transform="translate(-177.904 -56.835)" fill="#062846"/>
      <path id="Path_41422" data-name="Path 41422" d="M184.179,192.176a2.054,2.054,0,0,1-1.454-.6l-4.6-4.6a2.056,2.056,0,0,1,2.908-2.908l3.144,3.144,6.061-6.062a2.056,2.056,0,1,1,2.908,2.908l-7.516,7.516a2.054,2.054,0,0,1-1.454.6" transform="translate(-104.637 -106.464)" fill="#062846"/>
      <path id="Path_41423" data-name="Path 41423" d="M174.695,186.472a2.054,2.054,0,0,1-1.131-.339l-1.3-.858c-.673-.444-6.587-4.348-8.639-5.865a10.655,10.655,0,0,1-4.012-8.639V156.8a2.056,2.056,0,0,1,2.057-2.057c4.282,0,9.946-3.666,11.767-5.078a2.054,2.054,0,0,1,2.52,0c.088.068,6.638,5.078,11.768,5.078a2.056,2.056,0,0,1,2.057,2.057V170.77a10.655,10.655,0,0,1-4.012,8.639c-2.163,1.6-8.575,5.823-8.639,5.865l-1.3.858a2.054,2.054,0,0,1-1.132.339M163.724,158.69v12.08a6.554,6.554,0,0,0,2.343,5.332c1.966,1.453,7.795,5.3,8.453,5.735l.174.115.17-.112c1.769-1.165,6.736-4.467,8.458-5.738a6.553,6.553,0,0,0,2.343-5.332V158.69c-4.42-.706-8.859-3.42-10.971-4.863-2.112,1.443-6.55,4.157-10.971,4.863m10.971-7.395h0Z" transform="translate(-94.092 -88.033)" fill="#062846"/>
    </g>
  </g>
</svg>
