<svg xmlns="http://www.w3.org/2000/svg" xmlns:xlink="http://www.w3.org/1999/xlink" width="160" height="160" viewBox="0 0 160 160">
  <defs>
    <clipPath id="clip-path">
      <rect id="Rectangle_149432" data-name="Rectangle 149432" width="160" height="160" fill="#062846"/>
    </clipPath>
  </defs>
  <g id="Group_85784" data-name="Group 85784" clip-path="url(#clip-path)">
    <path id="Path_46796" data-name="Path 46796" d="M73.262,223.108a14.754,14.754,0,1,1,14.755-14.754,14.772,14.772,0,0,1-14.755,14.754m0-25.4A10.641,10.641,0,1,0,83.9,208.354a10.654,10.654,0,0,0-10.642-10.641" transform="translate(-34.16 -113.968)" fill="#062846"/>
    <path id="Path_46797" data-name="Path 46797" d="M82.927,289.051a2.056,2.056,0,0,1-1.918-1.315,13.058,13.058,0,0,0-12.1-8.294H57.482a13.057,13.057,0,0,0-12.1,8.293,2.056,2.056,0,0,1-3.836-1.484,17.2,17.2,0,0,1,15.939-10.922H68.9a17.2,17.2,0,0,1,15.94,10.923,2.058,2.058,0,0,1-1.917,2.8" transform="translate(-24.092 -162.082)" fill="#062846"/>
    <path id="Path_46798" data-name="Path 46798" d="M273.5,225.964a14.754,14.754,0,1,1,14.755-14.754A14.772,14.772,0,0,1,273.5,225.964m0-25.4A10.641,10.641,0,1,0,284.14,211.21,10.654,10.654,0,0,0,273.5,200.568" transform="translate(-152.04 -115.649)" fill="#062846"/>
    <path id="Path_46799" data-name="Path 46799" d="M283.164,291.908a2.056,2.056,0,0,1-1.918-1.315,13.058,13.058,0,0,0-12.1-8.294H257.719a13.057,13.057,0,0,0-12.1,8.293,2.056,2.056,0,1,1-3.836-1.484,17.2,17.2,0,0,1,15.939-10.922h11.423a17.2,17.2,0,0,1,15.94,10.923,2.058,2.058,0,0,1-1.917,2.8" transform="translate(-141.972 -163.764)" fill="#062846"/>
    <path id="Path_46800" data-name="Path 46800" d="M98.758,104.744a3.11,3.11,0,0,1-3.108-3.106V91.4H78.7a10.682,10.682,0,0,1-10.67-10.67V52.153A10.682,10.682,0,0,1,78.7,41.483h47.566a10.682,10.682,0,0,1,10.67,10.67v9.769a2.056,2.056,0,1,1-4.113,0V52.153a6.564,6.564,0,0,0-6.557-6.557H78.7a6.565,6.565,0,0,0-6.557,6.557V80.735A6.564,6.564,0,0,0,78.7,87.292H96.658a3.108,3.108,0,0,1,3.1,3.1V99.2l11-11a3.085,3.085,0,0,1,2.2-.909h3.783a2.056,2.056,0,0,1,0,4.113h-3.365L100.95,103.833a3.1,3.1,0,0,1-2.192.911" transform="translate(-39.765 -24.417)" fill="#062846"/>
    <path id="Path_46801" data-name="Path 46801" d="M136.24,101.282h-.411a2.056,2.056,0,1,1,0-4.113h.411a2.056,2.056,0,1,1,0,4.113m-10.694,0h-.411a2.056,2.056,0,1,1,0-4.113h.411a2.056,2.056,0,1,1,0,4.113m-10.694,0h-.411a2.056,2.056,0,0,1,0-4.113h.411a2.056,2.056,0,1,1,0,4.113" transform="translate(-65.879 -57.199)" fill="#062846"/>
    <path id="Path_46802" data-name="Path 46802" d="M221.688,141.443a2.642,2.642,0,0,1-1.871-.777l-6.781-6.78h-6.93a6.944,6.944,0,0,1-6.936-6.936V110.758a6.945,6.945,0,0,1,6.936-6.937h26.948a6.944,6.944,0,0,1,6.936,6.937V126.95a6.944,6.944,0,0,1-6.936,6.936h-8.713v4.906a2.654,2.654,0,0,1-2.653,2.652m-15.582-33.509a2.826,2.826,0,0,0-2.823,2.824V126.95a2.826,2.826,0,0,0,2.823,2.823h7.536a2.632,2.632,0,0,1,1.877.779l4.709,4.709v-2.838a2.653,2.653,0,0,1,2.65-2.65h10.175a2.826,2.826,0,0,0,2.823-2.823V110.758a2.826,2.826,0,0,0-2.823-2.824Zm7.536,25.952h0Zm-1.034-.429,0,0Z" transform="translate(-116.969 -61.115)" fill="#062846"/>
    <path id="Path_46803" data-name="Path 46803" d="M179.127,246.927a2.048,2.048,0,0,1-1.454-.6l-6.237-6.237a2.056,2.056,0,1,1,2.908-2.908l4.783,4.782,8.741-8.74a2.056,2.056,0,0,1,2.908,2.908l-10.194,10.194a2.048,2.048,0,0,1-1.454.6" transform="translate(-100.288 -136.939)" fill="#062846"/>
    <path id="Path_46804" data-name="Path 46804" d="M166.263,239.191a2.056,2.056,0,0,1-1.132-.34l-1.8-1.188c-1.477-.975-8.983-5.939-11.648-7.909a13.717,13.717,0,0,1-5.145-11.129V199.683a2.056,2.056,0,0,1,2.057-2.056c7.226,0,16.32-6.971,16.411-7.042a2.058,2.058,0,0,1,2.52,0c.14.108,9.2,7.041,16.41,7.041a2.056,2.056,0,0,1,2.056,2.056v18.943a13.717,13.717,0,0,1-5.145,11.129c-2.667,1.971-10.172,6.935-11.649,7.909l-.035.023-1.766,1.164a2.056,2.056,0,0,1-1.132.34m-15.614-37.585v17.02a9.613,9.613,0,0,0,3.476,7.82c2.582,1.908,10.007,6.819,11.469,7.784l.669.441.668-.44c1.462-.965,8.887-5.875,11.47-7.785a9.613,9.613,0,0,0,3.476-7.82v-17.02c-6.355-.8-12.917-4.966-15.614-6.852-2.7,1.886-9.259,6.053-15.614,6.852m15.614-9.4h0Z" transform="translate(-85.983 -111.939)" fill="#062846"/>
  </g>
</svg>
