<svg xmlns="http://www.w3.org/2000/svg" xmlns:xlink="http://www.w3.org/1999/xlink" width="160" height="160" viewBox="0 0 160 160">
  <defs>
    <clipPath id="clip-path">
      <rect id="Rectangle_146817" data-name="Rectangle 146817" width="160" height="160" fill="#062846"/>
    </clipPath>
  </defs>
  <g id="Group_79801" data-name="Group 79801" clip-path="url(#clip-path)">
    <path id="Path_41401" data-name="Path 41401" d="M248.349,295.734h-54.6a2.056,2.056,0,1,1,0-4.113h45.161a12.852,12.852,0,0,1-3.464-8.788V280.9a2.057,2.057,0,0,1,4.113,0v1.931a8.8,8.8,0,0,0,8.788,8.788,2.056,2.056,0,0,1,0,4.113" transform="translate(-112.66 -164.358)" fill="#062846"/>
    <path id="Path_41402" data-name="Path 41402" d="M193.544,103.461a2.056,2.056,0,0,1-2.057-2.057V81.994a8.8,8.8,0,0,0-8.788-8.788H128.515a12.852,12.852,0,0,1,3.464,8.788V95.813a2.057,2.057,0,0,1-4.113,0V81.994a8.8,8.8,0,0,0-8.788-8.788,2.056,2.056,0,0,1,0-4.113H182.7a12.916,12.916,0,0,1,12.9,12.9V101.4a2.056,2.056,0,0,1-2.056,2.057" transform="translate(-68.7 -40.877)" fill="#062846"/>
    <path id="Path_41403" data-name="Path 41403" d="M114.4,90.558H92.713A2.056,2.056,0,0,1,90.656,88.5V81.994a12.916,12.916,0,0,1,12.9-12.9,2.056,2.056,0,1,1,0,4.113,8.8,8.8,0,0,0-8.788,8.788v4.45H114.4a2.056,2.056,0,1,1,0,4.113" transform="translate(-53.179 -40.877)" fill="#062846"/>
    <path id="Path_41404" data-name="Path 41404" d="M215.212,109.5h-38.45a2.056,2.056,0,0,1,0-4.113h38.45a2.056,2.056,0,0,1,0,4.113" transform="translate(-102.658 -62.241)" fill="#062846"/>
    <path id="Path_41405" data-name="Path 41405" d="M215.212,128.238h-38.45a2.056,2.056,0,1,1,0-4.113h38.45a2.056,2.056,0,1,1,0,4.113" transform="translate(-102.658 -73.275)" fill="#062846"/>
    <path id="Path_41406" data-name="Path 41406" d="M215.212,146.98h-38.45a2.057,2.057,0,0,1,0-4.113h38.45a2.057,2.057,0,0,1,0,4.113" transform="translate(-102.658 -84.308)" fill="#062846"/>
    <path id="Path_41407" data-name="Path 41407" d="M206.545,165.721H176.762a2.056,2.056,0,0,1,0-4.113h29.784a2.056,2.056,0,1,1,0,4.113" transform="translate(-102.658 -95.341)" fill="#062846"/>
    <path id="Path_41408" data-name="Path 41408" d="M295.786,253.974a2.055,2.055,0,0,1-1.1-.321l-7.061-4.487-7.061,4.487a2.057,2.057,0,0,1-3.159-1.736V235.8a2.057,2.057,0,1,1,4.113,0v12.375l5-3.18a2.055,2.055,0,0,1,2.206,0l5,3.18V235.906a2.056,2.056,0,1,1,4.113,0v16.012a2.057,2.057,0,0,1-2.057,2.056" transform="translate(-163.116 -137.806)" fill="#062846"/>
    <path id="Path_41409" data-name="Path 41409" d="M275.556,195.146a18.656,18.656,0,1,1,4.18-.476,18.681,18.681,0,0,1-4.18.476m3.719-2.481h0Zm-3.716-30.7a14.535,14.535,0,1,0,14.164,11.279,14.527,14.527,0,0,0-14.164-11.279" transform="translate(-151.051 -93.127)" fill="#062846"/>
    <path id="Path_41410" data-name="Path 41410" d="M286.405,200.276a2.05,2.05,0,0,1-1.454-.6l-6.474-6.474a2.056,2.056,0,1,1,2.908-2.908l5.02,5.02,9.129-9.129a2.057,2.057,0,0,1,2.909,2.908L287.86,199.673a2.05,2.05,0,0,1-1.454.6" transform="translate(-163.394 -109.453)" fill="#062846"/>
    <path id="Path_41411" data-name="Path 41411" d="M189.212,184.472H176.762a2.056,2.056,0,0,1,0-4.113h12.451a2.056,2.056,0,1,1,0,4.113" transform="translate(-102.658 -106.38)" fill="#062846"/>
    <path id="Path_41412" data-name="Path 41412" d="M92.446,251.1H51.135a9.739,9.739,0,0,1-9.728-9.728V212.762a9.739,9.739,0,0,1,9.728-9.728H92.446a9.739,9.739,0,0,1,9.728,9.728v28.613a9.739,9.739,0,0,1-9.728,9.728M51.135,207.147a5.621,5.621,0,0,0-5.615,5.615v28.613a5.621,5.621,0,0,0,5.615,5.615H92.446a5.621,5.621,0,0,0,5.615-5.615V212.762a5.621,5.621,0,0,0-5.615-5.615Z" transform="translate(-24.186 -119.728)" fill="#062846"/>
    <path id="Path_41413" data-name="Path 41413" d="M107.743,178.207a2.056,2.056,0,0,1-2.057-2.056v-9.572a8.591,8.591,0,1,0-17.181,0v9.572a2.057,2.057,0,0,1-4.113,0v-9.572a12.7,12.7,0,1,1,25.407,0v9.572a2.056,2.056,0,0,1-2.057,2.056" transform="translate(-49.491 -90.788)" fill="#062846"/>
    <path id="Path_41414" data-name="Path 41414" d="M104.71,168.14a2.056,2.056,0,0,1-2.056-2.057v-9.572a15.624,15.624,0,1,0-31.247,0v9.572a2.056,2.056,0,1,1-4.113,0v-9.572a19.737,19.737,0,1,1,39.473,0v9.572a2.056,2.056,0,0,1-2.057,2.057" transform="translate(-39.425 -80.721)" fill="#062846"/>
    <path id="Path_41415" data-name="Path 41415" d="M103.973,256.13h-.879a4.7,4.7,0,0,1-4.694-4.694V245.97a8.22,8.22,0,0,1-2.351-9.789,8.116,8.116,0,0,1,5.72-4.637,8.21,8.21,0,0,1,6.9,14.426v5.467a4.7,4.7,0,0,1-4.694,4.694m-.434-20.66a4.417,4.417,0,0,0-.917.1,4.043,4.043,0,0,0-2.813,2.281A4.124,4.124,0,0,0,101.3,243a2.642,2.642,0,0,1,1.21,2.217v6.22a.581.581,0,0,0,.581.581h.879a.581.581,0,0,0,.581-.581v-6.219A2.643,2.643,0,0,1,105.765,243a4.142,4.142,0,0,0,1.866-3.431,4.084,4.084,0,0,0-1.524-3.185,4.039,4.039,0,0,0-2.568-.913" transform="translate(-55.928 -136.403)" fill="#062846"/>
  </g>
</svg>
